<svg enable-background="new 0 0 100 100" version="1.1" viewBox="0 0 100 100" xml:space="preserve" xmlns="http://www.w3.org/2000/svg">
    <path d="m50.027 33.222" stroke="#fff" stroke-width="1.1096"/>
    <path stroke="#fff" fill="#fff" d="m50.569 89.891c-0.212 2e-3 -0.421 0.016-0.634 0.016-0.216 0-0.43-0.014-0.646-0.018-0.383 0.443-0.855 0.807-1.388 1.064 0.674 0.031 1.352 0.051 2.033 0.051 0.679 0 1.352-0.02 2.022-0.051-0.532-0.258-1.004-0.621-1.387-1.062z"/>
    <path stroke="#fff" fill="#fff" d="m49.935 5.699c-23.8 0-43.163 19.133-43.163 42.651 0 21.355 15.966 39.093 36.722 42.177-0.473-0.352-0.864-0.797-1.159-1.309-3.684-0.668-7.203-1.797-10.485-3.346 1.069-0.037 2.094-0.602 2.66-1.6l7.24-12.748 1e-3 -12.891-12.78 22.496c-0.607 1.07-0.514 2.34 0.114 3.307-12.664-7.163-21.204-20.635-21.204-36.086 0-9.677 3.357-18.574 8.972-25.638-0.209 0.937 0.188 2.028 1.497 2.646l14.35 6.755h10.508l-22.949-10.806c-0.815-0.385-1.544-0.372-2.124-0.132 7.711-8.803 19.093-14.38 31.8-14.38 12.709 0 24.09 5.577 31.801 14.38-0.58-0.24-1.309-0.253-2.123 0.132l-22.949 10.806h10.506l14.35-6.755c1.311-0.617 1.707-1.709 1.498-2.646 5.613 7.063 8.971 15.961 8.971 25.639 0 15.453-8.541 28.925-21.205 36.085 0.627-0.967 0.721-2.236 0.113-3.307l-12.78-22.498-4e-3 12.885 7.246 12.758c0.568 0.998 1.594 1.562 2.664 1.6-3.287 1.551-6.814 2.684-10.504 3.348-0.295 0.514-0.688 0.957-1.158 1.309 20.762-3.076 36.736-20.818 36.736-42.179 1e-3 -23.52-19.361-42.653-43.162-42.653z"/>
    <path stroke="#fff" fill="#fff" d="m84.672 20.166h-70.58v70.839h71.689v-70.84h-1.109zm-32.307 69.74h-4.874c1.024-0.529 1.73-1.586 1.73-2.816l5e-3 -26.701h1.415l-6e-3 26.701c0 1.23 0.707 2.287 1.73 2.816zm32.307 0h-29.402c1.023-0.529 1.729-1.586 1.729-2.816l0.016-49.392h25.094c3.387 0 3.387-4.476 0-4.476h-64.36c-3.388 0-3.388 4.476 0 4.476h25.115l-7e-3 49.392c0 1.23 0.708 2.287 1.73 2.816h-29.386v-68.645h32.292c-1.908 0.915-3.235 2.848-3.235 5.104 0 3.136 2.542 5.678 5.678 5.678 3.137 0 5.678-2.542 5.678-5.678 0-2.257-1.326-4.189-3.234-5.104h32.293v68.645z"/>
</svg>
